<svg width="17" height="17" viewBox="0 0 17 17" fill="none" xmlns="http://www.w3.org/2000/svg">
<path d="M13.2166 7.13031C13.2166 7.13031 12.8546 11.6203 12.6446 13.5116C12.5446 14.415 11.9866 14.9443 11.0726 14.961C9.33325 14.9923 7.59192 14.9943 5.85325 14.9576C4.97392 14.9396 4.42525 14.4036 4.32725 13.5163C4.11592 11.6083 3.75592 7.13031 3.75592 7.13031" stroke="black" stroke-linecap="round" stroke-linejoin="round"/>
<path d="M14.1388 4.97797H2.83347" stroke="black" stroke-linecap="round" stroke-linejoin="round"/>
<path d="M11.9604 4.97798C11.4371 4.97798 10.9864 4.60798 10.8837 4.09531L10.7217 3.28464C10.6217 2.91064 10.2831 2.65198 9.89705 2.65198H7.07505C6.68905 2.65198 6.35039 2.91064 6.25039 3.28464L6.08839 4.09531C5.98572 4.60798 5.53505 4.97798 5.01172 4.97798" stroke="black" stroke-linecap="round" stroke-linejoin="round"/>
</svg>
