<svg width="32" height="32" viewBox="0 0 32 32" fill="none" xmlns="http://www.w3.org/2000/svg">
<path d="M0 16C0 7.16344 7.16344 0 16 0C24.8366 0 32 7.16344 32 16C32 24.8366 24.8366 32 16 32C7.16344 32 0 24.8366 0 16Z" fill="#975102" fill-opacity="0.75"/>
<path fill-rule="evenodd" clip-rule="evenodd" d="M15.8795 10.6174L14.6607 13.0497L14.6599 13.0513C14.4647 13.4372 14.093 13.703 13.6654 13.7633C13.6651 13.7634 13.6648 13.7635 13.6645 13.7635L10.934 14.1567C10.8643 14.1659 10.8002 14.1984 10.7524 14.2479C10.635 14.3701 10.6385 14.5641 10.7604 14.6821C10.7603 14.6821 10.7605 14.6823 10.7604 14.6821L12.733 16.5755C12.7332 16.5756 12.7334 16.5758 12.7335 16.576C13.0468 16.8756 13.1909 17.3117 13.1162 17.7396C13.1162 17.7397 13.1162 17.7396 13.1162 17.7396L12.6501 20.4115C12.6398 20.4781 12.651 20.5471 12.6836 20.6092C12.7664 20.7643 12.9588 20.823 13.1139 20.7407L13.1182 20.7383L15.5555 19.4751C15.9395 19.2767 16.3959 19.2764 16.7798 19.4748L19.2203 20.7398C19.2818 20.7724 19.3518 20.7841 19.4204 20.7733C19.594 20.7451 19.7115 20.5829 19.6851 20.4104L19.2193 17.7407C19.2192 17.7405 19.2193 17.7409 19.2193 17.7407C19.1437 17.3119 19.2877 16.8748 19.602 16.5751C19.6023 16.5748 19.6026 16.5745 19.6029 16.5742L21.5725 14.6818C21.5725 14.6819 21.5726 14.6817 21.5725 14.6818C21.6221 14.6339 21.6547 14.5697 21.6639 14.5009C21.6859 14.3319 21.567 14.178 21.3999 14.1561L21.3937 14.1553L18.6688 13.7628C18.6685 13.7628 18.6681 13.7627 18.6679 13.7627C18.2404 13.7024 17.8681 13.4366 17.6736 13.0496L16.4563 10.6172C16.4251 10.5578 16.3771 10.5106 16.3192 10.4808L16.3183 10.4803C16.1587 10.3976 15.963 10.4592 15.8795 10.6174ZM16.7778 9.59215C16.1277 9.25563 15.3274 9.50903 14.9903 10.1597L13.7674 12.6001C13.7673 12.6003 13.7672 12.6005 13.7671 12.6007C13.7196 12.6942 13.6292 12.7586 13.5255 12.7732L10.7995 13.1658C10.5077 13.2051 10.2371 13.3417 10.0324 13.5539C9.53142 14.0743 9.54755 14.9016 10.0665 15.4022L10.0674 15.4031L12.0414 17.2977L12.0423 17.2986C12.1153 17.3683 12.1483 17.4692 12.1311 17.5677L11.6644 20.2431L11.6635 20.2487C11.6171 20.5333 11.6659 20.8232 11.7994 21.0763L11.8 21.0775C12.141 21.7197 12.9373 21.9649 13.5803 21.6252L16.0151 20.3633C16.0151 20.3633 16.0152 20.3632 16.0151 20.3633C16.1111 20.3137 16.2249 20.3137 16.3208 20.3633L18.7523 21.6235C18.753 21.6239 18.7537 21.6243 18.7544 21.6247C19.0069 21.7578 19.2958 21.8057 19.5782 21.7608L19.5792 21.7607C20.2979 21.6448 20.7879 20.9686 20.6719 20.2488L20.2042 17.5677L20.204 17.5667C20.1865 17.4681 20.2194 17.3679 20.2923 17.2985L22.2667 15.4016C22.4796 15.1963 22.6165 14.9245 22.6553 14.6322L22.6554 14.6314C22.749 13.9178 22.2485 13.2608 21.5335 13.165L18.8095 12.7728L18.8078 12.7725C18.7037 12.7579 18.6138 12.6933 18.5671 12.6006C18.5671 12.6006 18.5671 12.6007 18.5671 12.6006L17.3487 10.1659L17.3457 10.1599C17.2197 9.91644 17.0217 9.71795 16.7778 9.59215Z" fill="white"/>
</svg>
